HIERARCHY
ROOT hips
{
  OFFSET 0 11.86390953 0.3628582958
  CHANNELS 6 Xposition Yposition Zposition Yrotation Xrotation Zrotation
  JOINT spine
  {
    OFFSET 0 0.05383551117999996 0
    CHANNELS 3 Yrotation Xrotation Zrotation
    JOINT chest
    {
      OFFSET 0 0.6394558760401424 0
      CHANNELS 3 Yrotation Xrotation Zrotation
      JOINT neck
      {
        OFFSET 0 2.720089088562982 0
        CHANNELS 3 Yrotation Xrotation Zrotation
        JOINT head
        {
          OFFSET 0 0.37880844870545777 0
          CHANNELS 3 Yrotation Xrotation Zrotation
          JOINT rightEye
          {
            OFFSET -0.42867780714 0.7547055649100001 0.7381831347
            CHANNELS 3 Yrotation Xrotation Zrotation
            End Site
            {
              OFFSET -0.42867780714 0.7547055649100001 0.7381831347
            }
          }
          JOINT leftEye
          {
            OFFSET 0.428676479 0.7547055559999993 0.7381844503
            CHANNELS 3 Yrotation Xrotation Zrotation
            End Site
            {
              OFFSET 0.428676479 0.7547055559999993 0.7381844503
            }
          }
          JOINT jaw
          {
            OFFSET -0.18933892286100001 1.5626303011000007 1.137441874206
            CHANNELS 3 Yrotation Xrotation Zrotation
            End Site
            {
              OFFSET -0.18933892286100001 1.5626303011000007 1.137441874206
            }
          }
        }
      }
      JOINT rightShoulder
      {
        OFFSET -0.6795351508 2.0665205 0
        CHANNELS 3 Yrotation Xrotation Zrotation
        JOINT rightUpperArm
        {
          OFFSET -0.7287400483531672 0 0
          CHANNELS 3 Yrotation Xrotation Zrotation
          JOINT rightLowerArm
          {
            OFFSET -1.9872982039174532 0 0
            CHANNELS 3 Yrotation Xrotation Zrotation
            JOINT rightHand
            {
              OFFSET -2.6451847532219275 0 0
              CHANNELS 3 Yrotation Xrotation Zrotation
              JOINT rightLittleProximal
              {
                OFFSET -0.8008804099999995 -0.09592044000000044 -0.26183688629999996
                CHANNELS 3 Yrotation Xrotation Zrotation
                JOINT rightLittleIntermediate
                {
                  OFFSET -0.2473955153999997 -0.02541697026000067 0.002370178700999967
                  CHANNELS 3 Yrotation Xrotation Zrotation
                  JOINT rightLittleDistal
                  {
                    OFFSET -0.163687229200001 -0.015790700860001117 -0.0004274845300000635
                    CHANNELS 3 Yrotation Xrotation Zrotation
                    End Site
                    {
                      OFFSET -0.163687229200001 -0.015790700860001117 -0.0004274845300000635
                    }
                  }
                }
              }
              JOINT rightRingProximal
              {
                OFFSET -0.8393382799999985 -0.06223833561000025 -0.09213143500000005
                CHANNELS 3 Yrotation Xrotation Zrotation
                JOINT rightRingIntermediate
                {
                  OFFSET -0.3284497260000011 -0.03264224524000103 0.009408593183000052
                  CHANNELS 3 Yrotation Xrotation Zrotation
                  JOINT rightRingDistal
                  {
                    OFFSET -0.19447660429999902 -0.021730899850000318 0.003074347969000052
                    CHANNELS 3 Yrotation Xrotation Zrotation
                    End Site
                    {
                      OFFSET -0.19447660429999902 -0.021730899850000318 0.003074347969000052
                    }
                  }
                }
              }
              JOINT rightMiddleProximal
              {
                OFFSET -0.8473005199999989 -0.06735503500000095 0.10541820299999995
                CHANNELS 3 Yrotation Xrotation Zrotation
                JOINT rightMiddleIntermediate
                {
                  OFFSET -0.3450455799999995 -0.02481901642000084 0.019012570390000032
                  CHANNELS 3 Yrotation Xrotation Zrotation
                  JOINT rightMiddleDistal
                  {
                    OFFSET -0.23542332000000088 -0.025003910029999243 0.0075583457949999905
                    CHANNELS 3 Yrotation Xrotation Zrotation
                    End Site
                    {
                      OFFSET -0.23542332000000088 -0.025003910029999243 0.0075583457949999905
                    }
                  }
                }
              }
              JOINT rightIndexProximal
              {
                OFFSET -0.8008568281999987 -0.09897839600000169 0.29462796
                CHANNELS 3 Yrotation Xrotation Zrotation
                JOINT rightIndexIntermediate
                {
                  OFFSET -0.30524754480000016 -0.024634122809999992 0.02743375304999998
                  CHANNELS 3 Yrotation Xrotation Zrotation
                  JOINT rightIndexDistal
                  {
                    OFFSET -0.23067378950000017 -0.016876459159999913 0.008484125099999983
                    CHANNELS 3 Yrotation Xrotation Zrotation
                    End Site
                    {
                      OFFSET -0.23067378950000017 -0.016876459159999913 0.008484125099999983
                    }
                  }
                }
              }
              JOINT rightThumbProximal
              {
                OFFSET -0.25574064999999935 -0.12833189930000155 0.22385698609999993
                CHANNELS 3 Yrotation Xrotation Zrotation
                JOINT rightThumbIntermediate
                {
                  OFFSET -0.22791743260000086 -0.07103586192999978 0.27385039
                  CHANNELS 3 Yrotation Xrotation Zrotation
                  JOINT rightThumbDistal
                  {
                    OFFSET -0.13610267659999975 -0.03369390969999997 0.14246511509999996
                    CHANNELS 3 Yrotation Xrotation Zrotation
                    End Site
                    {
                      OFFSET -0.13610267659999975 -0.03369390969999997 0.14246511509999996
                    }
                  }
                }
              }
            }
          }
        }
      }
      JOINT leftShoulder
      {
        OFFSET 0.6795338396 2.0665205 0
        CHANNELS 3 Yrotation Xrotation Zrotation
        JOINT leftUpperArm
        {
          OFFSET 0.7287383950230443 0 0
          CHANNELS 3 Yrotation Xrotation Zrotation
          JOINT leftLowerArm
          {
            OFFSET 1.9872997282019604 0 0
            CHANNELS 3 Yrotation Xrotation Zrotation
            JOINT leftHand
            {
              OFFSET 2.6451820781302327 0 0
              CHANNELS 3 Yrotation Xrotation Zrotation
              JOINT leftLittleProximal
              {
                OFFSET 0.8008804099999995 -0.09592306899999814 -0.2618342639000001
                CHANNELS 3 Yrotation Xrotation Zrotation
                JOINT leftLittleIntermediate
                {
                  OFFSET 0.2473981400000007 -0.02542352681000093 0.0023609995859999455
                  CHANNELS 3 Yrotation Xrotation Zrotation
                  JOINT leftLittleDistal
                  {
                    OFFSET 0.1636846068000002 -0.015794634789999318 -0.00043272972159996703
                    CHANNELS 3 Yrotation Xrotation Zrotation
                    End Site
                    {
                      OFFSET 0.1636846068000002 -0.015794634789999318 -0.00043272972159996703
                    }
                  }
                }
              }
              JOINT leftRingProximal
              {
                OFFSET 0.8393409199999996 -0.062242267999998324 -0.0921281570000001
                CHANNELS 3 Yrotation Xrotation Zrotation
                JOINT leftRingIntermediate
                {
                  OFFSET 0.3284471036000003 -0.03264224524000103 0.009405970574000042
                  CHANNELS 3 Yrotation Xrotation Zrotation
                  JOINT leftRingDistal
                  {
                    OFFSET 0.1944779099999996 -0.021732211159998904 0.003073036670000001
                    CHANNELS 3 Yrotation Xrotation Zrotation
                    End Site
                    {
                      OFFSET 0.1944779099999996 -0.021732211159998904 0.003073036670000001
                    }
                  }
                }
              }
              JOINT leftMiddleProximal
              {
                OFFSET 0.8473005200000001 -0.06736028199999788 0.1054214809999999
                CHANNELS 3 Yrotation Xrotation Zrotation
                JOINT leftMiddleIntermediate
                {
                  OFFSET 0.3450455799999995 -0.024824261000000014 0.019013225990000007
                  CHANNELS 3 Yrotation Xrotation Zrotation
                  JOINT leftMiddleDistal
                  {
                    OFFSET 0.2354259489999998 -0.025005222000000327 0.0075590014499999705
                    CHANNELS 3 Yrotation Xrotation Zrotation
                    End Site
                    {
                      OFFSET 0.2354259489999998 -0.025005222000000327 0.0075590014499999705
                    }
                  }
                }
              }
              JOINT leftIndexProximal
              {
                OFFSET 0.8008594516999996 -0.09898495199999946 0.29463124239999994
                CHANNELS 3 Yrotation Xrotation Zrotation
                JOINT leftIndexIntermediate
                {
                  OFFSET 0.30524754480000016 -0.024632811499998963 0.02743047472
                  CHANNELS 3 Yrotation Xrotation Zrotation
                  JOINT leftIndexDistal
                  {
                    OFFSET 0.23067378950000017 -0.016876459159999913 0.008481502700000004
                    CHANNELS 3 Yrotation Xrotation Zrotation
                    End Site
                    {
                      OFFSET 0.23067378950000017 -0.016876459159999913 0.008481502700000004
                    }
                  }
                }
              }
              JOINT leftThumbProximal
              {
                OFFSET 0.25574326469999953 -0.12833321050000013 0.22385764169999997
                CHANNELS 3 Yrotation Xrotation Zrotation
                JOINT leftThumbIntermediate
                {
                  OFFSET 0.22804987480000094 -0.07138466829999968 0.273648441
                  CHANNELS 3 Yrotation Xrotation Zrotation
                  JOINT leftThumbDistal
                  {
                    OFFSET 0.13614857189999907 -0.033867001519998885 0.14238119169999996
                    CHANNELS 3 Yrotation Xrotation Zrotation
                    End Site
                    {
                      OFFSET 0.13614857189999907 -0.033867001519998885 0.14238119169999996
                    }
                  }
                }
              }
            }
          }
        }
      }
    }
  }
  JOINT rightUpperLeg
  {
    OFFSET -0.9749898906000001 -1.8495733739999998 0
    CHANNELS 3 Yrotation Xrotation Zrotation
    JOINT rightLowerLeg
    {
      OFFSET 0 -4.1566544686813165 0
      CHANNELS 3 Yrotation Xrotation Zrotation
      JOINT rightFoot
      {
        OFFSET 0.14539718599999998 -4.225553926 -0.3666210900000001
        CHANNELS 3 Yrotation Xrotation Zrotation
        JOINT rightToes
        {
          OFFSET 0.1706738473 -0.9584117400000015 1.0093348617
          CHANNELS 3 Yrotation Xrotation Zrotation
          End Site
          {
            OFFSET 0.1706738473 -0.9584117400000015 1.0093348617
          }
        }
      }
    }
  }
  JOINT leftUpperLeg
  {
    OFFSET 0.9749898906000001 -1.8495733739999998 0
    CHANNELS 3 Yrotation Xrotation Zrotation
    JOINT leftLowerLeg
    {
      OFFSET 0 -4.156653488267941 0
      CHANNELS 3 Yrotation Xrotation Zrotation
      JOINT leftFoot
      {
        OFFSET -0.14537357999999995 -4.225555399999999 -0.36661124279999996
        CHANNELS 3 Yrotation Xrotation Zrotation
        JOINT leftToes
        {
          OFFSET -0.17066467000000002 -0.9584157000000019 1.0093348617
          CHANNELS 3 Yrotation Xrotation Zrotation
          End Site
          {
            OFFSET -0.17066467000000002 -0.9584157000000019 1.0093348617
          }
        }
      }
    }
  }
}
MOTION
Frames: 4
Frame Time: 0.03333333333333333
0.012332726269960403 -0.025100516633301595 0.028713040053844452 2.180604842760079 -0.012838183587189167 -0.6949783646417058 0.5584979742727735 -0.12120074333479262 -0.7931676130339042 2.5073708380768007 -0.48979845745574 1.4108876172439564 0.6320591526750872 8.425593111548453 3.8829738917091685 -2.5793411266561064 -6.882643080746424 -5.200072024008316 0 0 0 0 0 0 0 0 0 0.18937663665887064 -1.8874323265374673 8.478172765084523 41.36868425175694 14.672094208015803 75.27312315432046 10.251880197671227 0.011800578443676824 -0.13172550871922295 2.3833083241976265 -33.38369902675422 -4.093996328636161 -3.2545451795501896 -2.285526762490511 35.51698018163152 -2.3312674439814502 0.35386381175999565 30.18777353847865 2.100646489424082 -0.1682046155780117 0.1801608503690728 -5.145150874299094 -0.5282396928622878 31.1186561926787 -2.339053106852556 0.6640734999094196 24.042774718849145 1.834178948162922 -0.0390456365212621 0.0577939742233124 -8.346619702809358 1.018748751978777 24.30211220973769 -2.7610821974350674 0.40238575999261994 23.949363630961706 -0.17626709922107794 -0.005036491203885313 0.24036168395586036 -9.057878021625479 1.047383105000178 16.69097948289189 -2.1725992609820115 0.2167200045593429 16.24827556101478 1.2737585624458392 -0.055609661385115194 -0.714517988816984 -9.83415238693742 -4.2005755287425535 -17.76378493947344 -11.621194350403881 9.93776112148514 -3.776994368787032 -14.477126396833228 3.0796087466545257 9.637129397732227 -10.970149852243463 -4.554742928910339 -9.338470744753465 -30.152253088188516 13.76193818271838 -75.97085407683431 -8.785876047000686 0.008677061682581793 0.11304793733828097 5.231240820726232 -30.531266418055196 -2.5273780240009596 -0.48716774133958163 -3.18919660403108 -27.484751914238906 1.7045934912137315 0.2628524812934695 -22.12272262718923 0.7794208519564974 -0.015425673934395825 0.8016401970568426 3.9075266196232388 -0.9236380337923478 -27.971778730426976 2.0667571301066587 0.5248521495123408 -20.80172354428104 0.18057464470811851 0.06733743646603507 -2.2079902417121438 6.503167229029898 0.26631099512750184 -21.2597128064612 2.5993914461663663 0.31864698949488346 -20.773345584669148 0.0365586624794628 0.002337113851736766 2.787603830005876 7.3986433159370515 0.5637931895296391 -19.509345021285316 2.415413363163241 0.28553161054103215 -18.658673057835358 -0.5518693473388171 0.005743743038221388 3.7704490381348226 1.9623322233707605 3.288861227507031 14.304490559464638 19.812329877721712 6.2830538709410275 2.8583719053854812 19.867163812516914 -1.847801085464657 -1.347416127309411 0.6674073100618404 -4.128274054699023 1.16884326782811 -5.325445985403029 5.111473902643025 -0.34520135133655394 2.8213863070431566 -1.0130015251079292 -0.5631286090340603 8.562167066357383e-8 -0.005441373763875344 1.0398417056156677e-7 11.022853661300834 -6.368038942593567 0.752443139349224 -3.290639419017523 8.235697657784941 -0.5958703059534897 6.108416534143956 -1.980064675161288 -0.24572695648369514 0.000002581870477107278 -0.004283554976243216 -8.885088655944187e-7
0.011798522435128689 -0.025193023041993 0.028403811156749725 2.1653838339731237 -0.024727478360608787 -0.6947744878031444 0.570317864268904 -0.11511862036524279 -0.7931563259176094 2.553897918608872 -0.46661401339026776 1.4088543752772207 0.6389345156746434 8.431284362172018 3.899628412686494 -2.5493146398561155 -6.885567420674763 -5.1938126959712 0 0 0 0 0 0 0 0 0 0.164777690227612 -1.8451468190837512 8.763372007172583 41.04075429505358 14.62099331167165 74.9044704126068 10.34624162903126 0.012032898261974857 -0.13292635943160006 2.321301183041727 -32.54253280964391 -3.8839229072938304 -3.2545571593519123 -2.2844014478520784 35.50767672937552 -2.3312712085042135 0.35387162927404286 30.18775067466933 2.1006481958312335 -0.16820228103063775 0.18018717059265432 -5.148879928441778 -0.527188332745237 31.134431130808046 -2.337848478610414 0.663359003511518 24.026724974979313 1.8355853875531987 -0.0386889124675027 0.04167050306124116 -8.344307924596714 1.018154324893431 24.325911398800237 -2.7612338990849254 0.40244229721070984 23.951286928813996 -0.17645026999299976 -0.005020046472853389 0.24223372826503708 -9.060301781923119 1.0484841235466393 16.685888519385824 -2.1755113365930168 0.217577799770384 16.28282905408955 1.270671733613127 -0.05639377948257992 -0.6799342272160799 -9.847335976348804 -4.161313140722754 -17.772388962936446 -11.6156527101178 9.934959703851865 -3.8068568391342144 -14.488209495312196 3.048390494586144 9.612016533579958 -11.00270964607958 -4.556060194015491 -9.320136881699916 -30.19044385982435 13.55665644326793 -75.81096691514833 -8.340779687854615 0.007813016063194178 0.10737410183875193 4.888245268663155 -29.762179117092945 -2.0051298381588887 -0.472410880721837 -3.186918839360842 -27.512164731157622 1.7039741632103966 0.26264741337952136 -22.115216422280408 0.7786070348313903 -0.015507831308047799 0.8108974542511818 3.909386136748841 -0.9229001708442153 -27.973197908166664 2.0656411792425065 0.5242733200823518 -20.78737692446471 0.17933804147033167 0.06715596942057997 -2.1935020938895953 6.5278073923566895 0.2754614164587016 -21.263890220125482 2.5998412184930073 0.31881198380494086 -20.77887965146952 0.03703946586969071 0.0023215228944015362 2.7820162421001955 7.402168863425299 0.568488480103764 -19.462029073245596 2.416568599604548 0.2859331025907007 -18.672516122462422 -0.5506484623214846 0.005607563222804441 3.7565855493101377 1.878034476662963 3.324091721831399 14.255576027582318 19.81111625991279 6.282141255491776 2.8632670320232254 19.874527231709678 -1.855999673628716 -1.3350992777992408 0.672213209367844 -4.121663663695471 1.1762275094090129 -5.319633775783131 5.116444722975961 -0.34996365815006225 2.820431380561721 -1.0162864006659844 -0.5646951256962751 4.772775977216585e-7 -0.0000038008973945341504 -2.3294830309137947e-7 11.015195178308877 -6.351654511494424 0.7592860129392969 -3.218112407382094 8.230365529101073 -0.5753449376439663 6.10731209874416 -1.9809813218582744 -0.2390407102195334 0.0000016311213578403981 0.018012107934875538 4.11189767059659e-7
0.010329695418477058 -0.025202559785157064 0.027930622920393944 2.160020957647652 -0.0590226766050857 -0.7038625141784358 0.5738191924777878 -0.10622486370221919 -0.793250149797272 2.5574459510430625 -0.432798385593438 1.4368893386377977 0.6637241510166703 8.462761237606292 3.9033381567546592 -2.4434402446563412 -6.920345703428599 -5.18092178659275 0 0 0 0 0 0 0 0 0 0.1211844207186844 -1.7602232459769398 9.29611625629236 40.419393566755566 14.50648739681875 74.17593985553067 10.53336058582964 0.01247473447164924 -0.13531244486210628 2.1234096779070355 -30.809678716167745 -3.4082728819190207 -3.2362073363392527 -2.29364323795964 35.48449041866969 -2.331693752794888 0.354035717027749 30.192894151110913 2.1001842803862067 -0.16843170700761367 0.18525905008070156 -5.134875131427836 -0.5337846038635123 31.120541734436262 -2.3373278139174998 0.6630485292705443 24.0197549915483 1.836136336053272 -0.038548329933575015 0.03537270953749295 -8.343927755722845 1.0180753383613412 24.330749761498296 -2.7615415177330993 0.40256492347649314 23.955032791836658 -0.1767656044607508 -0.005035397723278492 0.24596849326476253 -9.06100049559988 1.047331763281957 16.640040116788423 -2.1772920537929794 0.21809400305185392 16.30371155679194 1.268810055040415 -0.05685202270065846 -0.6589541567650997 -9.889855978159263 -3.9447384659381073 -17.836643651918433 -11.617099968571203 9.930566068388224 -3.8071476661321273 -14.423935587196572 2.971037553868453 9.541690782402553 -10.989734205005277 -4.561924536819779 -9.411357331626139 -30.235810529181762 13.30494056444301 -75.42054544935147 -7.4949560520205205 0.0063226853668063845 0.09652807539983148 4.164121051604424 -28.066294523300172 -0.9025114123361453 -0.45426320288177474 -3.1798489293471066 -27.521721285264437 1.7012938476635322 0.26172746264376767 -22.08280683557853 0.7755193109842845 -0.015809190071055888 0.8460543086073248 3.9200060441348334 -0.9159657822391075 -27.946762043064656 2.0644997211686946 0.5236865396066686 -20.772572244101266 0.1780144764503825 0.06695647973542504 -2.1779226108948198 6.543362722898431 0.28272877059893675 -21.162196161854702 2.597622208708553 0.3180225244756396 -20.751802914902306 0.034690819573146965 0.002360204927081301 2.809057947431617 7.4099745141454605 0.5788326797608014 -19.363446822696517 2.4159598805932596 0.28570730333217303 -18.66517231557087 -0.5512992335260233 0.005683604522951187 3.7639009546552646 1.719223280055273 3.39661322167001 14.16140399227179 19.80723595741094 6.279291328793819 2.878822256380933 19.893671029609262 -1.876958343381548 -1.304716865005012 0.6688666980485111 -4.08500256153874 1.194004414744862 -5.3208669940805 5.1107933001377335 -0.34432718526217015 2.815049162285741 -1.020127067529772 -0.600560345481102 0.0000013846296976930638 0.003341445562547217 -1.6647869230325317e-8 11.025065568666637 -6.322789199526916 0.7809248549381046 -3.181380666701085 8.238650588939693 -0.5541718463804449 6.104158182370219 -1.991314135155709 -0.2844925298713387 0.000007459019043709769 0.07451512368437703 3.5453947419277485e-7
0.008693165145814419 -0.025214957551270345 0.027196070179343224 2.164893864779159 -0.06485579496937982 -0.7057709331375444 0.5716191280363474 -0.11273566670651734 -0.7976444093087052 2.5534780563650448 -0.4570781725324539 1.4050532988067967 0.687538436269604 8.474746568878071 3.912071787470662 -2.342361608452424 -6.964076004476513 -5.155007760337863 0 0 0 0 0 0 0 0 0 0.08252901673693197 -1.6713442915746393 9.936102185751446 39.723613941652495 14.349059848211954 73.38411062183052 10.66209782783228 0.012769557359841506 -0.1369357389146575 2.0552207133756903 -28.999606731945175 -2.9335267214174916 -3.2692300454926264 -2.273426044869325 35.49187119056779 -2.3243618074605847 0.3509564974180335 30.10272632300557 2.1083341427356923 -0.16410996665289446 0.09515225986833878 -5.129390740097532 -0.53766154601799 31.136519478393996 -2.3376103273782465 0.6632165738512867 24.023497550511085 1.8357388840390718 -0.0386457435276834 0.03991065885079778 -8.350272406305624 1.0207714486647563 24.326481329699696 -2.7619249872328995 0.40273712320096505 23.959822745499253 -0.17718307110109033 -0.005028931054893857 0.2508531887569553 -9.062337004509024 1.049269299975854 16.704296590446223 -2.1691176443498037 0.2157112371331294 16.207113400080615 1.2774113177791857 -0.05469302155938758 -0.7556495055967731 -9.98381007474083 -3.5374764929928824 -17.97027752773119 -11.603708919463445 9.917410650828282 -3.891467506736803 -14.336266736649833 2.7884348565403823 9.396203068097465 -10.976244759913186 -4.56044324401756 -9.384376868666964 -30.20653744558528 12.863869347268729 -75.11410784256252 -6.462313096840811 0.00468981491280156 0.08330454627976697 3.613497805137592 -26.3985342396665 0.32555122935882863 -0.4415681363050141 -3.167850159617874 -27.488072487715236 1.7010726126706963 0.261649901835114 -22.08018575545555 0.7750486651210089 -0.01585844714273488 0.8515090467514209 3.9327754770931205 -0.9069764360046332 -27.906266185037108 2.062755644120176 0.5227713628194174 -20.750086838065993 0.17601313527895113 0.06666438222811835 -2.1544867571190673 6.566010485292763 0.29214217040063173 -21.088241520955453 2.598820464326932 0.318444401885906 -20.766422110497857 0.03596129786894794 0.0023410806892063345 2.7943742997979077 7.408536154097044 0.5834957510484495 -19.187083949408724 2.417319208809552 0.28618051326864935 -18.681556023422395 -0.5498575719827621 0.005516850606226075 3.7475224505133995 1.6275833908827895 3.4502638369933027 14.10308939783381 19.808308744638662 6.279944542983442 2.875117539427976 19.89855073086062 -1.8834955793145263 -1.2922464953301556 0.668279890832619 -4.0715839734862405 1.1995943673762897 -5.319210248020502 5.090328845860704 -0.33143555257093726 2.814029836077889 -1.0061617364063238 -0.5916747169321384 4.833641616044817e-7 -0.004071755745396885 -7.3991652825056995e-9 11.039485491383866 -6.32771987579516 0.7970172594101606 -3.2897037552931057 8.237130555602496 -0.5952608209097775 6.099281577993412 -1.9952073507930472 -0.26132846055074277 -0.000006586106148440012 0.025518122858848608 -3.3656994962485205e-7
